<svg width="49" height="49" viewBox="0 0 49 49" fill="none" xmlns="http://www.w3.org/2000/svg">
<g id="Group">
<path id="Vector" d="M26.1333 9.8V8.16667C26.1333 3.66357 22.4698 0 17.9667 0C13.4636 0 9.8 3.66357 9.8 8.16667V9.8H0V42.4667C0 46.0763 2.92367 49 6.53333 49H23.9773C22.6566 48.0727 21.4648 46.9742 20.433 45.7333H6.53333C4.73667 45.7333 3.26667 44.2633 3.26667 42.4667V13.0667H9.8V16.3333H13.0667V13.0667H22.8667V16.3333H26.1333V13.0667H32.6667V16.415C33.2057 16.366 33.7447 16.3333 34.3 16.3333C34.8553 16.3333 35.3943 16.366 35.9333 16.415V9.8H26.1333ZM13.0667 9.8V8.16667C13.0667 5.46513 15.2651 3.26667 17.9667 3.26667C20.6682 3.26667 22.8667 5.46513 22.8667 8.16667V9.8H13.0667ZM34.3 49C26.1938 49 19.6 42.4062 19.6 34.3C19.6 26.1938 26.1938 19.6 34.3 19.6C42.4062 19.6 49 26.1938 49 34.3C49 42.4062 42.4062 49 34.3 49ZM34.3 22.8667C27.9953 22.8667 22.8667 27.9953 22.8667 34.3C22.8667 40.6047 27.9953 45.7333 34.3 45.7333C40.6047 45.7333 45.7333 40.6047 45.7333 34.3C45.7333 27.9953 40.6047 22.8667 34.3 22.8667ZM32.6667 39.8762L27.0905 34.3L29.4 31.9905L32.6667 35.2571L39.2 28.7238L41.5095 31.0333L32.6667 39.8762Z" fill="#FF7143"/>
</g>
</svg>
