<svg width="49" height="49" viewBox="0 0 49 49" fill="none" xmlns="http://www.w3.org/2000/svg">
<g id="Layer_1" clip-path="url(#clip0_82696_12269)">
<g id="Clip path group">
<mask id="mask0_82696_12269" style="mask-type:luminance" maskUnits="userSpaceOnUse" x="0" y="0" width="49" height="49">
<g id="clippath">
<path id="Vector" d="M49 0H0V49H49V0Z" fill="white"/>
</g>
</mask>
<g mask="url(#mask0_82696_12269)">
<g id="Group">
<g id="Group_2">
<path id="Vector_2" d="M8.56545 13.8071C6.5107 16.8629 5.3125 20.5408 5.3125 24.5C5.3125 35.0972 13.9028 43.6876 24.5 43.6876C26.7481 43.6876 28.9052 43.3009 30.9093 42.5908" stroke="#FF7143" stroke-width="2.5" stroke-linecap="round" stroke-linejoin="round"/>
<path id="Vector_3" d="M41.5408 33.3286C42.9131 30.6863 43.6874 27.6831 43.6874 24.5C43.6874 13.9028 35.0971 5.3125 24.4999 5.3125C20.6306 5.3125 17.0283 6.45807 14.0137 8.42859" stroke="#FF7143" stroke-width="2.5" stroke-linecap="round" stroke-linejoin="round"/>
<path id="Vector_4" d="M21.8203 24.5C21.8203 25.9796 23.0204 27.1797 24.5 27.1797C25.9796 27.1797 27.1797 25.9796 27.1797 24.5C27.1797 23.0204 25.9796 21.8203 24.5 21.8203C23.0204 21.8203 21.8203 23.0204 21.8203 24.5Z" stroke="#FF7143" stroke-width="2.5" stroke-linecap="round" stroke-linejoin="round"/>
<path id="Vector_5" d="M10.8545 43.6875C14.7037 46.4294 19.4132 48.043 24.4998 48.043C27.3528 48.043 30.0879 47.5357 32.6183 46.6055" stroke="#FF7143" stroke-width="2.5" stroke-linecap="round" stroke-linejoin="round"/>
<path id="Vector_6" d="M46.5758 32.6989C47.5243 30.1455 48.043 27.3835 48.043 24.5C48.043 11.4978 37.5022 0.957031 24.5 0.957031C11.4978 0.957031 0.957031 11.4978 0.957031 24.5C0.957031 29.6689 2.62227 34.4483 5.44646 38.331" stroke="#FF7143" stroke-width="2.5" stroke-linecap="round" stroke-linejoin="round"/>
<path id="Vector_7" d="M40.0994 24.5181H38.748" stroke="#FF7143" stroke-width="2.5" stroke-linecap="round" stroke-linejoin="round"/>
<path id="Vector_8" d="M8.90039 24.4819H10.2517" stroke="#FF7143" stroke-width="2.5" stroke-linecap="round" stroke-linejoin="round"/>
<path id="Vector_9" d="M24.5186 8.90039V10.2517" stroke="#FF7143" stroke-width="2.5" stroke-linecap="round" stroke-linejoin="round"/>
<path id="Vector_10" d="M24.4814 40.0996V38.7483" stroke="#FF7143" stroke-width="2.5" stroke-linecap="round" stroke-linejoin="round"/>
<path id="Vector_11" d="M22.6051 22.6051L18.2314 18.2314" stroke="#FF7143" stroke-width="2.5" stroke-linecap="round" stroke-linejoin="round"/>
<path id="Vector_12" d="M26.3945 22.6051L34.5484 14.4512" stroke="#FF7143" stroke-width="2.5" stroke-linecap="round" stroke-linejoin="round"/>
<path id="Vector_13" d="M36.4717 46.1289C36.4717 47.1864 35.6151 48.043 34.5576 48.043C33.5001 48.043 32.6436 47.1864 32.6436 46.1289C32.6436 45.0714 33.5001 44.2148 34.5576 44.2148C35.6151 44.2148 36.4717 45.0714 36.4717 46.1289Z" stroke="#FF7143" stroke-width="2.5" stroke-linecap="round" stroke-linejoin="round"/>
<path id="Vector_14" d="M44.3877 46.1289C44.3877 47.1864 43.5312 48.043 42.4736 48.043C41.4161 48.043 40.5596 47.1864 40.5596 46.1289C40.5596 45.0714 41.4161 44.2148 42.4736 44.2148C43.5312 44.2148 44.3877 45.0714 44.3877 46.1289Z" stroke="#FF7143" stroke-width="2.5" stroke-linecap="round" stroke-linejoin="round"/>
<path id="Vector_15" d="M30.5758 33.3286H48.0426L45.4883 44.2148H31.1893L29.7403 30.5771H26.3955" stroke="#FF7143" stroke-width="2.5" stroke-linecap="round" stroke-linejoin="round"/>
</g>
</g>
</g>
</g>
</g>
<defs>
<clipPath id="clip0_82696_12269">
<rect width="49" height="49" fill="white"/>
</clipPath>
</defs>
</svg>
