<svg width="48" height="49" viewBox="0 0 48 49" fill="none" xmlns="http://www.w3.org/2000/svg">
<g id="Group">
<g id="Group_2">
<path id="Vector" fill-rule="evenodd" clip-rule="evenodd" d="M34.3866 44.7676C34.7308 44.7676 35.0608 44.6309 35.3042 44.3875C35.5475 44.1442 35.6843 43.8141 35.6843 43.47C35.6843 43.1258 35.5475 42.7957 35.3042 42.5524C35.0608 42.309 34.7308 42.1723 34.3866 42.1723C34.0425 42.1723 33.7124 42.309 33.4691 42.5524C33.2257 42.7957 33.089 43.1258 33.089 43.47C33.089 43.8141 33.2257 44.1442 33.4691 44.3875C33.7124 44.6309 34.0425 44.7676 34.3866 44.7676ZM34.3866 48.6604C35.7632 48.6604 37.0835 48.1136 38.0569 47.1402C39.0303 46.1668 39.5771 44.8465 39.5771 43.47C39.5771 42.0934 39.0303 40.7731 38.0569 39.7997C37.0835 38.8263 35.7632 38.2795 34.3866 38.2795C33.01 38.2795 31.6898 38.8263 30.7164 39.7997C29.743 40.7731 29.1962 42.0934 29.1962 43.47C29.1962 44.8465 29.743 46.1668 30.7164 47.1402C31.6898 48.1136 33.01 48.6604 34.3866 48.6604ZM18.8153 44.7676C19.1594 44.7676 19.4895 44.6309 19.7328 44.3875C19.9762 44.1442 20.1129 43.8141 20.1129 43.47C20.1129 43.1258 19.9762 42.7957 19.7328 42.5524C19.4895 42.309 19.1594 42.1723 18.8153 42.1723C18.4711 42.1723 18.1411 42.309 17.8977 42.5524C17.6544 42.7957 17.5176 43.1258 17.5176 43.47C17.5176 43.8141 17.6544 44.1442 17.8977 44.3875C18.1411 44.6309 18.4711 44.7676 18.8153 44.7676ZM18.8153 48.6604C20.1919 48.6604 21.5121 48.1136 22.4855 47.1402C23.4589 46.1668 24.0057 44.8465 24.0057 43.47C24.0057 42.0934 23.4589 40.7731 22.4855 39.7997C21.5121 38.8263 20.1919 38.2795 18.8153 38.2795C17.4387 38.2795 16.1185 38.8263 15.1451 39.7997C14.1717 40.7731 13.6248 42.0934 13.6248 43.47C13.6248 44.8465 14.1717 46.1668 15.1451 47.1402C16.1185 48.1136 17.4387 48.6604 18.8153 48.6604ZM0.326843 0.866652C0.613196 0.437179 1.05842 0.139038 1.56458 0.0378061C2.07073 -0.0634256 2.59638 0.0405427 3.02588 0.326843L6.05711 2.34723C7.0256 2.99268 7.70933 3.9853 7.9672 5.12023L13.3069 28.6174C13.4699 29.3346 13.8717 29.9752 14.4465 30.434C15.0213 30.8928 15.735 31.1427 16.4705 31.1426H36.7314C37.4669 31.1427 38.1806 30.8928 38.7554 30.434C39.3302 29.9752 39.732 29.3346 39.895 28.6174L44.024 10.4508C44.132 9.97583 44.1316 9.48262 44.0228 9.0078C43.9141 8.53298 43.6998 8.08874 43.3959 7.70806C43.092 7.32737 42.7063 7.02001 42.2674 6.80878C41.8284 6.59756 41.3476 6.48789 40.8604 6.48792H20.7617C20.2455 6.48792 19.7504 6.28285 19.3854 5.91783C19.0203 5.5528 18.8153 5.05772 18.8153 4.5415C18.8153 4.02527 19.0203 3.53019 19.3854 3.16517C19.7504 2.80014 20.2455 2.59507 20.7617 2.59507H40.8604C45.441 2.59507 48.8343 6.84736 47.8196 11.3137L43.6905 29.4804C43.3317 31.0578 42.4476 32.4664 41.1832 33.4755C39.9188 34.4846 38.3491 35.0342 36.7314 35.0342H16.4705C14.8528 35.0342 13.2831 34.4846 12.0187 33.4755C10.7543 32.4664 9.8702 31.0578 9.51136 29.4804L4.17038 5.98185C4.13355 5.81991 4.03602 5.67826 3.89788 5.58608L0.866652 3.56569C0.437179 3.27934 0.139038 2.83412 0.0378061 2.32796C-0.0634256 1.8218 0.0405427 1.29616 0.326843 0.866652Z" fill="#FF7143"/>
<path id="Vector_2" fill-rule="evenodd" clip-rule="evenodd" d="M18.8023 18.8946C19.1671 18.5299 19.6617 18.3249 20.1775 18.3247C20.6933 18.3244 21.1881 18.5289 21.5533 18.8933L23.85 21.1862L31.6487 13.3875C31.8283 13.2017 32.0432 13.0535 32.2807 12.9516C32.5182 12.8497 32.7737 12.7961 33.0321 12.794C33.2905 12.7919 33.5468 12.8413 33.786 12.9392C34.0251 13.0372 34.2424 13.1818 34.4251 13.3647C34.6077 13.5475 34.7522 13.7649 34.8499 14.0042C34.9477 14.2434 34.9968 14.4998 34.9944 14.7582C34.9921 15.0166 34.9383 15.272 34.8361 15.5094C34.734 15.7469 34.5856 15.9616 34.3996 16.141L25.2255 25.3152C24.8605 25.6797 24.3658 25.8844 23.85 25.8844C23.3342 25.8844 22.8395 25.6797 22.4746 25.3152L18.8023 21.6468C18.4374 21.2818 18.2324 20.7868 18.2324 20.2707C18.2324 19.7546 18.4374 19.2596 18.8023 18.8946Z" fill="#FF7143"/>
</g>
</g>
</svg>
