<svg width="16" height="16" viewBox="0 0 16 16" fill="none" xmlns="http://www.w3.org/2000/svg">
<g clip-path="url(#clip0_82706_13833)">
<path d="M12.6667 0.640137H3.33333C2.4496 0.641195 1.60237 0.992725 0.97748 1.61762C0.352588 2.24251 0.00105857 3.08974 0 3.97347L0 11.9735C0.00105857 12.8572 0.352588 13.7044 0.97748 14.3293C1.60237 14.9542 2.4496 15.3057 3.33333 15.3068H12.6667C13.5504 15.3057 14.3976 14.9542 15.0225 14.3293C15.6474 13.7044 15.9989 12.8572 16 11.9735V3.97347C15.9989 3.08974 15.6474 2.24251 15.0225 1.61762C14.3976 0.992725 13.5504 0.641195 12.6667 0.640137ZM3.33333 1.97347H12.6667C13.1971 1.97347 13.7058 2.18418 14.0809 2.55926C14.456 2.93433 14.6667 3.44304 14.6667 3.97347V4.64014H1.33333V3.97347C1.33333 3.44304 1.54405 2.93433 1.91912 2.55926C2.29419 2.18418 2.8029 1.97347 3.33333 1.97347ZM12.6667 13.9735H3.33333C2.8029 13.9735 2.29419 13.7628 1.91912 13.3877C1.54405 13.0126 1.33333 12.5039 1.33333 11.9735V5.97347H14.6667V11.9735C14.6667 12.5039 14.456 13.0126 14.0809 13.3877C13.7058 13.7628 13.1971 13.9735 12.6667 13.9735ZM12.6667 8.64014C12.6667 8.81695 12.5964 8.98652 12.4714 9.11154C12.3464 9.23657 12.1768 9.3068 12 9.3068H4C3.82319 9.3068 3.65362 9.23657 3.5286 9.11154C3.40357 8.98652 3.33333 8.81695 3.33333 8.64014C3.33333 8.46333 3.40357 8.29376 3.5286 8.16873C3.65362 8.04371 3.82319 7.97347 4 7.97347H12C12.1768 7.97347 12.3464 8.04371 12.4714 8.16873C12.5964 8.29376 12.6667 8.46333 12.6667 8.64014ZM10 11.3068C10 11.4836 9.92976 11.6532 9.80474 11.7782C9.67971 11.9032 9.51014 11.9735 9.33333 11.9735H4C3.82319 11.9735 3.65362 11.9032 3.5286 11.7782C3.40357 11.6532 3.33333 11.4836 3.33333 11.3068C3.33333 11.13 3.40357 10.9604 3.5286 10.8354C3.65362 10.7104 3.82319 10.6401 4 10.6401H9.33333C9.51014 10.6401 9.67971 10.7104 9.80474 10.8354C9.92976 10.9604 10 11.13 10 11.3068ZM2 3.3068C2 3.17495 2.0391 3.04606 2.11235 2.93642C2.18561 2.82679 2.28973 2.74134 2.41154 2.69088C2.53336 2.64043 2.66741 2.62722 2.79673 2.65295C2.92605 2.67867 3.04484 2.74216 3.13807 2.8354C3.23131 2.92863 3.2948 3.04742 3.32052 3.17674C3.34625 3.30606 3.33305 3.44011 3.28259 3.56193C3.23213 3.68374 3.14668 3.78786 3.03705 3.86112C2.92741 3.93437 2.79852 3.97347 2.66667 3.97347C2.48986 3.97347 2.32029 3.90323 2.19526 3.77821C2.07024 3.65318 2 3.48361 2 3.3068ZM4 3.3068C4 3.17495 4.0391 3.04606 4.11235 2.93642C4.18561 2.82679 4.28973 2.74134 4.41154 2.69088C4.53336 2.64043 4.66741 2.62722 4.79673 2.65295C4.92605 2.67867 5.04484 2.74216 5.13807 2.8354C5.23131 2.92863 5.2948 3.04742 5.32052 3.17674C5.34625 3.30606 5.33305 3.44011 5.28259 3.56193C5.23213 3.68374 5.14668 3.78786 5.03705 3.86112C4.92741 3.93437 4.79852 3.97347 4.66667 3.97347C4.48986 3.97347 4.32029 3.90323 4.19526 3.77821C4.07024 3.65318 4 3.48361 4 3.3068ZM6 3.3068C6 3.17495 6.0391 3.04606 6.11235 2.93642C6.18561 2.82679 6.28973 2.74134 6.41154 2.69088C6.53336 2.64043 6.66741 2.62722 6.79673 2.65295C6.92605 2.67867 7.04484 2.74216 7.13807 2.8354C7.23131 2.92863 7.2948 3.04742 7.32052 3.17674C7.34625 3.30606 7.33305 3.44011 7.28259 3.56193C7.23213 3.68374 7.14668 3.78786 7.03705 3.86112C6.92741 3.93437 6.79852 3.97347 6.66667 3.97347C6.48986 3.97347 6.32029 3.90323 6.19526 3.77821C6.07024 3.65318 6 3.48361 6 3.3068Z" fill="#4C5564"/>
</g>
<defs>
<clipPath id="clip0_82706_13833">
<rect width="16" height="16" fill="white"/>
</clipPath>
</defs>
</svg>
