<svg width="18" height="17" viewBox="0 0 18 17" fill="none" xmlns="http://www.w3.org/2000/svg">
<path d="M10.4972 6.65068C10.4977 7.36341 10.2871 8.06032 9.89216 8.65359L7.58816 6.34959V3.08777C8.40939 3.2554 9.1475 3.70159 9.6776 4.35083C10.2077 5.00008 10.4973 5.81251 10.4972 6.65068ZM6.13361 3.08777C5.25066 3.26798 4.46607 3.76963 3.93196 4.49546C3.39786 5.22128 3.15229 6.11957 3.24286 7.01617C3.33344 7.91276 3.7537 8.74379 4.42218 9.34813C5.09066 9.95247 5.95972 10.2871 6.86088 10.287C7.57361 10.2875 8.27052 10.0769 8.86379 9.68195L6.13361 6.95177V3.08777ZM11.9518 4.46886H14.8609V3.01432H11.9518V4.46886ZM11.9518 7.37795H14.8609V5.92341H11.9518V7.37795ZM11.9518 10.287H14.8609V8.8325H11.9518V10.287ZM9.76998 13.1961V14.6507H13.4063V16.1052H4.67907V14.6507H8.31543V13.1961H0.31543V2.28704C0.31543 1.08413 1.29434 0.105225 2.49725 0.105225H15.5882C16.7911 0.105225 17.77 1.08413 17.77 2.28704V13.1961H9.76998ZM1.76998 11.7416H16.3154V2.28704C16.3154 1.88632 15.9896 1.55977 15.5882 1.55977H2.49725C2.09579 1.55977 1.76998 1.88632 1.76998 2.28704V11.7416Z" fill="#4C5564"/>
</svg>
