<svg width="17" height="17" viewBox="0 0 17 17" fill="none" xmlns="http://www.w3.org/2000/svg">
<path d="M14.7724 9.439C14.7724 9.61582 14.7022 9.78539 14.5772 9.91042C14.4522 10.0354 14.2826 10.1057 14.1058 10.1057H4.5969C4.73402 10.495 4.98843 10.8322 5.3251 11.071C5.66178 11.3098 6.06418 11.4384 6.47694 11.439H12.7724C12.9492 11.439 13.1188 11.5093 13.2438 11.6343C13.3688 11.7593 13.4391 11.9289 13.4391 12.1057C13.4391 12.2825 13.3688 12.4521 13.2438 12.5771C13.1188 12.7022 12.9492 12.7724 12.7724 12.7724H6.47694C5.66036 12.7725 4.87217 12.4728 4.2619 11.9302C3.65163 11.3877 3.26174 10.64 3.1662 9.82901L2.24885 2.02818C2.22989 1.86588 2.152 1.71621 2.02996 1.60756C1.90792 1.49892 1.75023 1.43887 1.58683 1.43883H0.77215C0.595335 1.43883 0.425762 1.36859 0.300735 1.24356C0.175708 1.11854 0.105469 0.948964 0.105469 0.77215C0.105469 0.595335 0.175708 0.425762 0.300735 0.300735C0.425762 0.175708 0.595335 0.105469 0.77215 0.105469L1.58683 0.105469C2.07671 0.105533 2.54953 0.285385 2.91561 0.61091C3.28168 0.936435 3.51556 1.38499 3.57288 1.87151L3.60021 2.10551H6.1056C6.28241 2.10551 6.45198 2.17575 6.57701 2.30078C6.70204 2.4258 6.77228 2.59538 6.77228 2.77219C6.77228 2.94901 6.70204 3.11858 6.57701 3.24361C6.45198 3.36863 6.28241 3.43887 6.1056 3.43887H3.75755L4.38489 8.77232H14.1058C14.2826 8.77232 14.4522 8.84256 14.5772 8.96759C14.7022 9.09261 14.7724 9.26219 14.7724 9.439ZM4.77223 13.4391C4.59467 13.4351 4.4181 13.4666 4.25287 13.5317C4.08765 13.5969 3.93711 13.6944 3.8101 13.8186C3.68308 13.9427 3.58215 14.091 3.51323 14.2547C3.4443 14.4184 3.40877 14.5942 3.40873 14.7718C3.40868 14.9494 3.44412 15.1252 3.51297 15.2889C3.58181 15.4527 3.68267 15.601 3.80962 15.7252C3.93658 15.8494 4.08706 15.947 4.25225 16.0122C4.41744 16.0775 4.594 16.1091 4.77157 16.1051C5.11995 16.0974 5.45147 15.9537 5.69517 15.7046C5.93886 15.4555 6.07536 15.1209 6.07545 14.7724C6.07554 14.424 5.9392 14.0893 5.69563 13.8401C5.45206 13.5909 5.12061 13.447 4.77223 13.4391ZM11.439 13.4391C11.2615 13.4351 11.0849 13.4666 10.9197 13.5317C10.7545 13.5969 10.6039 13.6944 10.4769 13.8186C10.3499 13.9427 10.249 14.091 10.18 14.2547C10.1111 14.4184 10.0756 14.5942 10.0755 14.7718C10.0755 14.9494 10.1109 15.1252 10.1798 15.2889C10.2486 15.4527 10.3495 15.601 10.4764 15.7252C10.6034 15.8494 10.7539 15.947 10.9191 16.0122C11.0843 16.0775 11.2608 16.1091 11.4384 16.1051C11.7868 16.0974 12.1183 15.9537 12.362 15.7046C12.6057 15.4555 12.7422 15.1209 12.7423 14.7724C12.7423 14.424 12.606 14.0893 12.3624 13.8401C12.1189 13.5909 11.7874 13.447 11.439 13.4391ZM12.7724 3.82955V2.77219C12.7724 2.59538 12.7022 2.4258 12.5771 2.30078C12.4521 2.17575 12.2825 2.10551 12.1057 2.10551C11.9289 2.10551 11.7593 2.17575 11.6343 2.30078C11.5093 2.4258 11.439 2.59538 11.439 2.77219V4.10555C11.439 4.28289 11.509 4.45223 11.6344 4.5769L12.3011 5.24358C12.3628 5.3057 12.4363 5.355 12.5172 5.38865C12.5981 5.42229 12.6848 5.43961 12.7724 5.43961C12.86 5.43961 12.9468 5.42229 13.0276 5.38865C13.1085 5.355 13.182 5.3057 13.2437 5.24358C13.3057 5.18172 13.3549 5.10825 13.3884 5.02737C13.422 4.94649 13.4392 4.85979 13.4392 4.77223C13.4392 4.68468 13.422 4.59798 13.3884 4.5171C13.3549 4.43622 13.3057 4.36275 13.2437 4.30089L12.7724 3.82955ZM16.1058 4.10555C16.1058 6.3116 14.3118 8.10564 12.1057 8.10564C9.89968 8.10564 8.10564 6.3116 8.10564 4.10555C8.10564 1.89951 9.89968 0.105469 12.1057 0.105469C14.3118 0.105469 16.1058 1.89951 16.1058 4.10555ZM14.7724 4.10555C14.7724 2.63486 13.5764 1.43883 12.1057 1.43883C10.635 1.43883 9.439 2.63486 9.439 4.10555C9.439 5.57625 10.635 6.77228 12.1057 6.77228C13.5764 6.77228 14.7724 5.57625 14.7724 4.10555Z" fill="#4C5564"/>
</svg>
