<svg width="16" height="16" viewBox="0 0 16 16" fill="none" xmlns="http://www.w3.org/2000/svg">
<g clip-path="url(#clip0_82706_13794)">
<path d="M1.33333 1.66667C1.33333 1.22464 1.50893 0.800716 1.82149 0.488155C2.13405 0.175595 2.55797 0 3 0C3.44203 0 3.86595 0.175595 4.17851 0.488155C4.49107 0.800716 4.66667 1.22464 4.66667 1.66667C4.66667 2.10869 4.49107 2.53262 4.17851 2.84518C3.86595 3.15774 3.44203 3.33333 3 3.33333C2.55797 3.33333 2.13405 3.15774 1.82149 2.84518C1.50893 2.53262 1.33333 2.10869 1.33333 1.66667ZM4.66667 6.66667C4.48986 6.66667 4.32029 6.7369 4.19526 6.86193C4.07024 6.98695 4 7.15652 4 7.33333V10H2.66667C1.93133 10 1.33333 9.402 1.33333 8.66667V6.66667C1.33333 5.93133 1.93133 5.33333 2.66667 5.33333H9.33333C9.51014 5.33333 9.67971 5.2631 9.80474 5.13807C9.92976 5.01305 10 4.84348 10 4.66667C10 4.48986 9.92976 4.32029 9.80474 4.19526C9.67971 4.07024 9.51014 4 9.33333 4H2.66667C1.196 4 0 5.196 0 6.66667V8.66667C0 9.64933 0.54 10.5 1.33333 10.9627V15.3333C1.33333 15.5101 1.40357 15.6797 1.5286 15.8047C1.65362 15.9298 1.82319 16 2 16C2.17681 16 2.34638 15.9298 2.4714 15.8047C2.59643 15.6797 2.66667 15.5101 2.66667 15.3333V11.3333H4V15.3333C4 15.5101 4.07024 15.6797 4.19526 15.8047C4.32029 15.9298 4.48986 16 4.66667 16C4.84348 16 5.01305 15.9298 5.13807 15.8047C5.2631 15.6797 5.33333 15.5101 5.33333 15.3333V7.33333C5.33333 7.15652 5.2631 6.98695 5.13807 6.86193C5.01305 6.7369 4.84348 6.66667 4.66667 6.66667ZM16 12.6667V14C16 15.1027 15.1027 16 14 16H12.6667C12.1731 15.9983 11.6977 15.813 11.3333 15.48C10.9787 15.8 10.514 16 10 16H8.66667C7.564 16 6.66667 15.1027 6.66667 14V12.6667C6.66667 11.564 7.564 10.6667 8.66667 10.6667H8.78933C8.71038 10.4532 8.66888 10.2276 8.66667 10V8.66667C8.66667 7.564 9.564 6.66667 10.6667 6.66667H12C13.1027 6.66667 14 7.564 14 8.66667V10C14 10.2347 13.952 10.4573 13.8773 10.6667H14C15.1027 10.6667 16 11.564 16 12.6667ZM10 10C10 10.368 10.2993 10.6667 10.6667 10.6667H12C12.3673 10.6667 12.6667 10.368 12.6667 10V8.66667C12.6667 8.29867 12.3673 8 12 8H10.6667C10.2993 8 10 8.29867 10 8.66667V10ZM10.6667 14V12.6667C10.6667 12.2987 10.3673 12 10 12H8.66667C8.29933 12 8 12.2987 8 12.6667V14C8 14.368 8.29933 14.6667 8.66667 14.6667H10C10.3673 14.6667 10.6667 14.368 10.6667 14ZM14.6667 12.6667C14.6667 12.2987 14.3673 12 14 12H12.6667C12.2993 12 12 12.2987 12 12.6667V14C12 14.368 12.2993 14.6667 12.6667 14.6667H14C14.3673 14.6667 14.6667 14.368 14.6667 14V12.6667Z" fill="#4C5564"/>
</g>
<defs>
<clipPath id="clip0_82706_13794">
<rect width="16" height="16" fill="white"/>
</clipPath>
</defs>
</svg>
