<svg width="16" height="16" viewBox="0 0 16 16" fill="none" xmlns="http://www.w3.org/2000/svg">
<path d="M7.99779 5.36841C7.47731 5.36841 6.96853 5.52275 6.53576 5.81191C6.103 6.10107 5.76571 6.51207 5.56653 6.99293C5.36735 7.47378 5.31524 8.00291 5.41678 8.51338C5.51832 9.02386 5.76895 9.49276 6.13698 9.86079C6.50502 10.2288 6.97392 10.4795 7.4844 10.581C7.99487 10.6825 8.52399 10.6304 9.00485 10.4312C9.48571 10.2321 9.89671 9.89477 10.1859 9.46201C10.475 9.02925 10.6294 8.52046 10.6294 7.99999C10.6294 7.30205 10.3521 6.6327 9.8586 6.13918C9.36508 5.64566 8.69573 5.36841 7.99779 5.36841ZM7.99779 9.31578C7.73755 9.31578 7.48316 9.23861 7.26678 9.09403C7.0504 8.94944 6.88175 8.74395 6.78216 8.50352C6.68257 8.26309 6.65651 7.99853 6.70728 7.74329C6.75805 7.48805 6.88337 7.2536 7.06739 7.06958C7.2514 6.88557 7.48586 6.76025 7.74109 6.70948C7.99633 6.65871 8.26089 6.68477 8.50132 6.78436C8.74175 6.88394 8.94725 7.05259 9.09183 7.26897C9.23641 7.48535 9.31358 7.73975 9.31358 7.99999C9.31358 8.34896 9.17495 8.68363 8.92819 8.93039C8.68144 9.17715 8.34676 9.31578 7.99779 9.31578Z" fill="#4C5564"/>
<path d="M14.1121 9.24996L13.82 9.08154C13.9515 8.36604 13.9515 7.63257 13.82 6.91707L14.1121 6.74865C14.3367 6.61905 14.5336 6.44648 14.6916 6.24079C14.8495 6.0351 14.9654 5.80032 15.0326 5.54984C15.0998 5.29937 15.117 5.03811 15.0832 4.78099C15.0494 4.52386 14.9654 4.27591 14.8358 4.05128C14.7062 3.82665 14.5336 3.62974 14.3279 3.47181C14.1222 3.31387 13.8874 3.19799 13.637 3.13079C13.3865 3.06359 13.1252 3.04638 12.8681 3.08015C12.611 3.11392 12.363 3.198 12.1384 3.32759L11.8456 3.49667C11.2927 3.02425 10.6573 2.65802 9.97129 2.41641V2.07891C9.97129 1.55546 9.76335 1.05344 9.39321 0.683303C9.02307 0.313166 8.52106 0.105225 7.99761 0.105225C7.47415 0.105225 6.97214 0.313166 6.602 0.683303C6.23186 1.05344 6.02392 1.55546 6.02392 2.07891V2.41641C5.33799 2.65889 4.70277 3.02601 4.15024 3.4993L3.85616 3.32891C3.4025 3.06718 2.86345 2.99639 2.35759 3.13211C1.85174 3.26782 1.42052 3.59893 1.15879 4.05259C0.897064 4.50625 0.826272 5.0453 0.961989 5.55116C1.09771 6.05701 1.42881 6.48823 1.88247 6.74996L2.17458 6.91838C2.04307 7.63388 2.04307 8.36736 2.17458 9.08286L1.88247 9.25128C1.42881 9.513 1.09771 9.94423 0.961989 10.4501C0.826272 10.9559 0.897064 11.495 1.15879 11.9486C1.42052 12.4023 1.85174 12.7334 2.35759 12.8691C2.86345 13.0048 3.4025 12.9341 3.85616 12.6723L4.14892 12.5033C4.70206 12.9757 5.33772 13.342 6.02392 13.5835V13.921C6.02392 14.4445 6.23186 14.9465 6.602 15.3166C6.97214 15.6868 7.47415 15.8947 7.99761 15.8947C8.52106 15.8947 9.02307 15.6868 9.39321 15.3166C9.76335 14.9465 9.97129 14.4445 9.97129 13.921V13.5835C10.6572 13.341 11.2924 12.9739 11.845 12.5006L12.1391 12.6704C12.5927 12.9321 13.1318 13.0029 13.6376 12.8672C14.1435 12.7314 14.5747 12.4003 14.8364 11.9467C15.0981 11.493 15.1689 10.954 15.0332 10.4481C14.8975 9.94225 14.5664 9.51103 14.1127 9.2493L14.1121 9.24996ZM12.4358 6.76575C12.6586 7.57303 12.6586 8.42558 12.4358 9.23286C12.3969 9.37336 12.4057 9.52281 12.461 9.65773C12.5162 9.79265 12.6147 9.90539 12.741 9.97825L13.4542 10.3901C13.6054 10.4773 13.7157 10.6211 13.7609 10.7897C13.8062 10.9583 13.7825 11.1379 13.6953 11.2891C13.6081 11.4403 13.4643 11.5506 13.2957 11.5959C13.1271 11.6411 12.9475 11.6175 12.7963 11.5302L12.0818 11.1171C11.9554 11.0439 11.8083 11.0148 11.6636 11.0345C11.5188 11.0541 11.3848 11.1214 11.2825 11.2256C10.6969 11.8234 9.95917 12.2499 9.14892 12.4592C9.0075 12.4955 8.88219 12.5779 8.79273 12.6933C8.70328 12.8087 8.65477 12.9506 8.65484 13.0967V13.921C8.65484 14.0955 8.58553 14.2628 8.46215 14.3862C8.33877 14.5096 8.17143 14.5789 7.99695 14.5789C7.82246 14.5789 7.65513 14.5096 7.53175 14.3862C7.40837 14.2628 7.33905 14.0955 7.33905 13.921V13.0973C7.33913 12.9513 7.29061 12.8094 7.20116 12.694C7.11171 12.5786 6.9864 12.4962 6.84497 12.4598C6.03468 12.2498 5.29716 11.8223 4.71208 11.2236C4.60979 11.1194 4.47572 11.0521 4.331 11.0325C4.18627 11.0128 4.03912 11.0419 3.91274 11.1151L3.19958 11.5276C3.12473 11.5715 3.04194 11.6001 2.95598 11.6119C2.87001 11.6236 2.78258 11.6183 2.69869 11.5961C2.61481 11.5739 2.53615 11.5354 2.46722 11.4826C2.3983 11.4299 2.34049 11.3641 2.2971 11.289C2.25372 11.2139 2.22563 11.1309 2.21445 11.0448C2.20326 10.9588 2.20921 10.8714 2.23194 10.7877C2.25467 10.7039 2.29374 10.6255 2.3469 10.557C2.40006 10.4884 2.46626 10.431 2.54168 10.3881L3.25484 9.97628C3.38113 9.90342 3.47963 9.79068 3.53488 9.65576C3.59014 9.52084 3.59901 9.37139 3.56011 9.23088C3.33731 8.4236 3.33731 7.57106 3.56011 6.76378C3.59831 6.62357 3.58901 6.47466 3.53367 6.34029C3.47833 6.20591 3.38005 6.09365 3.25418 6.02101L2.54103 5.60917C2.38984 5.52193 2.27949 5.3782 2.23428 5.2096C2.18906 5.04101 2.21267 4.86135 2.29991 4.71016C2.38715 4.55897 2.53088 4.44863 2.69948 4.40341C2.86808 4.35819 3.04773 4.3818 3.19892 4.46904L3.9134 4.8822C4.03943 4.95556 4.18628 4.98497 4.33085 4.9658C4.47542 4.94662 4.60952 4.87996 4.71208 4.77628C5.29766 4.17848 6.03539 3.75195 6.84563 3.54272C6.9875 3.50625 7.11313 3.42348 7.20263 3.30753C7.29213 3.19157 7.34037 3.04907 7.33971 2.90259V2.07891C7.33971 1.90442 7.40903 1.73709 7.5324 1.61371C7.65578 1.49033 7.82312 1.42101 7.99761 1.42101C8.17209 1.42101 8.33943 1.49033 8.46281 1.61371C8.58619 1.73709 8.6555 1.90442 8.6555 2.07891V2.90259C8.65543 3.04862 8.70394 3.19052 8.79339 3.30594C8.88284 3.42135 9.00815 3.50373 9.14958 3.54009C9.96011 3.75006 10.6979 4.17752 11.2831 4.77628C11.3854 4.88053 11.5195 4.94779 11.6642 4.96744C11.8089 4.98709 11.9561 4.95803 12.0825 4.88483L12.7956 4.47233C12.8705 4.42845 12.9533 4.39981 13.0392 4.38805C13.1252 4.3763 13.2126 4.38167 13.2965 4.40384C13.3804 4.42602 13.4591 4.46457 13.528 4.51727C13.5969 4.56998 13.6547 4.63579 13.6981 4.71093C13.7415 4.78607 13.7696 4.86905 13.7808 4.95509C13.792 5.04113 13.786 5.12853 13.7633 5.21226C13.7405 5.29599 13.7015 5.3744 13.6483 5.44297C13.5951 5.51154 13.529 5.56892 13.4535 5.6118L12.7404 6.02365C12.6147 6.09648 12.5167 6.20883 12.4616 6.34318C12.4065 6.47753 12.3974 6.62634 12.4358 6.76641V6.76575Z" fill="#4C5564"/>
</svg>
