<svg width="16" height="16" viewBox="0 0 16 16" fill="none" xmlns="http://www.w3.org/2000/svg">
<path d="M3.72417 7.34207C4.99391 7.34207 6.0268 6.30917 6.0268 5.03943C6.0268 3.7697 4.99391 2.7368 3.72417 2.7368C2.45443 2.7368 1.42154 3.7697 1.42154 5.03943C1.42154 6.30917 2.45443 7.34207 3.72417 7.34207ZM3.72417 4.05259C4.26825 4.05259 4.71101 4.49536 4.71101 5.03943C4.71101 5.58351 4.26825 6.02628 3.72417 6.02628C3.18009 6.02628 2.73733 5.58351 2.73733 5.03943C2.73733 4.49536 3.18009 4.05259 3.72417 4.05259ZM5.91562 9.52233C5.86752 9.59415 5.80574 9.65579 5.7338 9.70373C5.66187 9.75166 5.5812 9.78495 5.49639 9.80169C5.41159 9.81843 5.32432 9.8183 5.23956 9.80129C5.15481 9.78429 5.07424 9.75075 5.00246 9.70259C4.62447 9.44898 4.17935 9.31405 3.72417 9.31509C3.15756 9.31409 2.61055 9.52239 2.18813 9.90002C1.7657 10.2776 1.49762 10.798 1.43535 11.3611C1.40942 11.5289 1.31972 11.6802 1.18496 11.7834C1.05021 11.8866 0.880805 11.9338 0.712094 11.9151C0.543384 11.8964 0.388398 11.8133 0.27947 11.6832C0.170541 11.553 0.116084 11.3858 0.127458 11.2164C0.22522 10.3312 0.646395 9.5133 1.31018 8.91958C1.97396 8.32585 2.8336 7.99814 3.72417 7.9993C4.44391 7.9993 5.13864 8.20983 5.73535 8.60917C5.80718 8.65727 5.86882 8.71905 5.91675 8.79099C5.96468 8.86292 5.99797 8.94359 6.01471 9.0284C6.03146 9.1132 6.03132 9.20047 6.01432 9.28522C5.99731 9.36998 5.96377 9.45055 5.91562 9.52233ZM10.3031 4.71049C11.5729 4.71049 12.6057 3.67759 12.6057 2.40786C12.6057 1.13812 11.5729 0.105225 10.3031 0.105225C9.03338 0.105225 8.00048 1.13812 8.00048 2.40786C8.00048 3.67759 9.03338 4.71049 10.3031 4.71049ZM10.3031 1.42101C10.8472 1.42101 11.29 1.86378 11.29 2.40786C11.29 2.95194 10.8472 3.3947 10.3031 3.3947C9.75904 3.3947 9.31627 2.95194 9.31627 2.40786C9.31627 1.86378 9.75904 1.42101 10.3031 1.42101ZM11.29 6.68417C8.75114 6.68417 6.6847 8.75062 6.6847 11.2894C6.6847 13.8283 8.75114 15.8947 11.29 15.8947C13.8288 15.8947 15.8952 13.8283 15.8952 11.2894C15.8952 8.75062 13.8288 6.68417 11.29 6.68417ZM11.29 14.5789C9.47614 14.5789 8.00048 13.1033 8.00048 11.2894C8.00048 9.47562 9.47614 7.99996 11.29 7.99996C13.1038 7.99996 14.5794 9.47562 14.5794 11.2894C14.5794 13.1033 13.1038 14.5789 11.29 14.5789ZM13.4097 10.4921C13.4695 10.5544 13.5165 10.6279 13.5479 10.7084C13.5793 10.7889 13.5946 10.8748 13.5928 10.9612C13.5911 11.0475 13.5723 11.1327 13.5376 11.2119C13.5029 11.291 13.453 11.3625 13.3906 11.4223L11.9347 12.8197C11.6373 13.1131 11.2426 13.2611 10.8472 13.2611C10.4518 13.2611 10.0557 13.1131 9.75312 12.8177L9.00838 12.0881C8.94526 12.028 8.89472 11.9559 8.8597 11.876C8.82468 11.7962 8.80588 11.7102 8.8044 11.623C8.80291 11.5358 8.81877 11.4492 8.85104 11.3682C8.88332 11.2873 8.93137 11.2135 8.99241 11.1512C9.05345 11.089 9.12625 11.0395 9.20659 11.0056C9.28693 10.9717 9.37319 10.9542 9.46038 10.9539C9.54757 10.9537 9.63393 10.9708 9.71445 11.0042C9.79498 11.0376 9.86805 11.0867 9.92943 11.1486L10.6735 11.8776C10.7196 11.9222 10.7813 11.947 10.8455 11.9468C10.9096 11.9465 10.9712 11.9212 11.0169 11.8763L12.4794 10.4723C12.5418 10.4125 12.6153 10.3655 12.6958 10.3341C12.7762 10.3027 12.8621 10.2874 12.9485 10.2892C13.0349 10.291 13.1201 10.3097 13.1992 10.3444C13.2783 10.3791 13.3499 10.4291 13.4097 10.4914V10.4921Z" fill="#4C5564"/>
</svg>
